<?xml version="1.0" standalone="no"?>
<!DOCTYPE svg PUBLIC "-//W3C//DTD SVG 20010904//EN"
 "http://www.w3.org/TR/2001/REC-SVG-20010904/DTD/svg10.dtd">
<svg version="1.0" xmlns="http://www.w3.org/2000/svg"
 width="2213.000000pt" height="2213.000000pt" viewBox="0 0 2213.000000 2213.000000"
 preserveAspectRatio="xMidYMid meet">
<metadata>
Created by potrace 1.11, written by Peter Selinger 2001-2013
</metadata>
<g transform="translate(0.000000,2213.000000) scale(0.100000,-0.100000)"
fill="#000000" stroke="none">
<path d="M10970 22109 c-41 -10 -84 -20 -95 -23 -85 -19 -151 -35 -375 -91
-140 -35 -331 -85 -425 -110 -190 -51 -196 -53 -227 -60 -28 -6 -254 -69 -403
-112 -66 -19 -127 -36 -135 -38 -14 -3 -250 -72 -547 -159 -104 -31 -303 -92
-861 -267 -51 -16 -98 -31 -103 -34 -5 -4 -17 -8 -28 -10 -23 -4 -678 -223
-706 -235 -11 -5 -54 -20 -95 -34 -41 -14 -133 -46 -205 -71 -71 -26 -148 -52
-170 -60 -43 -14 -211 -76 -260 -95 -16 -6 -37 -13 -45 -15 -8 -2 -100 -36
-205 -75 -201 -76 -241 -91 -510 -196 -93 -36 -222 -86 -285 -110 -118 -46
-130 -51 -190 -77 -19 -9 -80 -33 -135 -55 -55 -22 -118 -48 -140 -58 -22 -10
-42 -18 -45 -19 -12 -4 -297 -123 -336 -140 -16 -8 -84 -37 -149 -65 -65 -28
-133 -57 -149 -65 -17 -8 -141 -63 -276 -123 -135 -61 -298 -135 -364 -166
-65 -31 -119 -56 -121 -56 -2 0 -97 -46 -211 -102 -115 -56 -211 -102 -214
-103 -8 -1 -512 -256 -625 -315 -168 -88 -348 -185 -479 -257 -43 -23 -80 -43
-82 -43 -3 0 -21 -10 -42 -23 -20 -13 -62 -37 -92 -54 -63 -34 -237 -133 -261
-148 -49 -30 -105 -59 -112 -57 -9 3 -3 -4388 6 -4493 3 -33 8 -118 11 -190 6
-136 14 -269 22 -370 2 -33 7 -91 9 -130 3 -38 7 -90 10 -115 2 -25 7 -79 10
-120 3 -41 8 -93 10 -115 3 -22 7 -69 10 -105 3 -36 7 -75 9 -86 2 -11 7 -56
11 -99 3 -44 8 -89 10 -100 4 -19 7 -44 20 -155 8 -73 16 -133 20 -160 6 -42
25 -173 29 -210 6 -47 15 -107 22 -150 4 -19 8 -44 9 -55 2 -11 9 -51 15 -90
6 -38 13 -83 15 -99 3 -15 7 -35 9 -45 3 -9 8 -38 11 -66 4 -27 9 -59 12 -70
3 -11 7 -29 9 -40 1 -11 7 -42 13 -70 5 -27 12 -70 16 -95 3 -25 9 -54 12 -65
3 -11 7 -29 9 -40 4 -33 73 -350 110 -510 172 -741 408 -1510 660 -2146 30
-75 54 -139 54 -142 0 -4 11 -30 24 -59 13 -29 47 -109 76 -178 59 -143 64
-153 119 -273 23 -49 41 -90 41 -93 0 -18 334 -693 428 -864 43 -80 96 -176
117 -215 21 -38 46 -82 57 -97 10 -14 18 -29 18 -32 0 -12 239 -404 367 -605
280 -435 582 -853 917 -1268 14 -17 102 -124 189 -228 37 -44 244 -281 272
-311 5 -6 46 -51 90 -100 288 -318 778 -801 1075 -1059 30 -26 62 -55 71 -64
9 -9 27 -25 40 -36 13 -11 67 -56 119 -100 52 -44 106 -90 120 -101 47 -40
117 -99 136 -114 139 -112 226 -181 259 -205 22 -16 42 -32 45 -36 4 -6 128
-98 355 -266 143 -106 275 -197 490 -340 127 -84 235 -156 240 -161 6 -4 28
-18 50 -31 22 -13 69 -43 105 -66 175 -113 549 -331 788 -461 341 -183 636
-330 977 -484 229 -103 245 -110 250 -110 3 0 27 -9 53 -21 79 -35 84 -37 167
-69 44 -17 89 -35 100 -40 35 -16 216 -81 349 -126 l129 -44 66 24 c146 53
376 148 559 232 29 13 54 24 56 24 26 0 777 376 974 488 41 23 76 42 78 42 2
0 21 11 42 24 20 12 64 37 97 55 33 18 67 36 75 41 8 5 107 64 220 131 113 66
221 131 240 143 19 13 98 63 175 111 434 273 1005 680 1426 1016 152 121 491
403 559 465 19 17 82 73 140 125 58 51 110 98 116 103 6 6 60 56 120 110 137
126 717 706 845 846 53 58 107 117 120 131 13 15 49 55 79 89 30 35 59 68 65
74 5 6 37 43 70 81 33 39 62 72 65 75 3 3 30 34 60 70 30 36 57 67 61 70 17
15 374 469 476 605 437 584 840 1215 1197 1875 60 111 362 718 390 785 9 22
23 51 30 65 8 14 44 95 81 180 37 85 73 169 80 185 8 17 39 93 70 170 31 77
64 160 75 185 41 97 243 651 255 700 2 8 11 35 20 60 15 43 145 455 149 475 1
6 10 36 19 67 49 165 196 722 211 800 2 13 20 93 39 178 20 85 45 202 56 260
12 58 24 116 26 130 3 14 8 36 10 50 2 14 6 36 9 50 3 14 11 52 16 85 6 33 15
80 20 105 5 25 12 63 15 84 3 21 8 48 10 60 3 12 7 37 10 56 3 30 16 106 30
187 4 25 24 165 30 208 2 17 9 66 15 110 16 117 18 131 29 225 12 93 19 163
26 225 2 22 6 64 9 93 13 113 22 210 31 327 3 44 8 98 10 120 2 22 7 87 10
145 4 58 8 123 10 145 2 22 6 105 10 185 4 80 9 172 12 205 8 89 15 4441 8
4433 -4 -3 -59 24 -123 61 -150 88 -530 301 -536 301 -2 0 -33 16 -68 36 -34
20 -115 63 -178 96 -63 34 -147 78 -186 99 -40 21 -220 112 -400 203 -301 150
-379 187 -604 293 -41 20 -122 58 -179 84 -57 27 -105 49 -106 49 -2 0 -50 22
-107 49 -130 61 -472 212 -688 303 -91 39 -178 76 -195 83 -16 8 -59 26 -95
40 -36 15 -78 33 -95 40 -62 27 -720 290 -828 331 -50 19 -126 49 -147 57 -14
6 -277 104 -515 192 -228 84 -616 221 -850 300 -93 31 -179 61 -190 65 -11 5
-72 25 -135 45 -63 20 -122 39 -130 42 -8 4 -17 7 -20 8 -8 2 -419 135 -480
155 -82 27 -615 191 -670 206 -8 2 -208 60 -445 128 -236 68 -450 129 -475
136 -25 7 -74 20 -110 30 -70 19 -374 100 -400 106 -8 2 -82 21 -165 42 -128
34 -282 72 -349 87 -10 2 -55 13 -100 24 -128 31 -224 51 -238 50 -7 -1 -47
-9 -88 -20z"/>
</g>
</svg>
